<svg width="14" height="15" viewBox="0 0 14 15" fill="none" xmlns="http://www.w3.org/2000/svg">
<path d="M8.6431 7.875L13.9147 2.60342C13.9693 2.54873 14 2.47459 14 2.3973C14 2.32 13.9693 2.24587 13.9147 2.19118L12.6838 0.9603C12.6291 0.90568 12.555 0.875 12.4777 0.875C12.4004 0.875 12.3263 0.90568 12.2716 0.9603L7 6.2319L1.72842 0.9603C1.67373 0.90568 1.59959 0.875 1.5223 0.875C1.445 0.875 1.37087 0.90568 1.31618 0.9603L0.0853 2.19118C0.03068 2.24587 0 2.32 0 2.3973C0 2.47459 0.03068 2.54873 0.0853 2.60342L5.3569 7.875L0.0853 13.1466C0.03068 13.2013 0 13.2754 0 13.3527C0 13.43 0.03068 13.5041 0.0853 13.5588L1.31618 14.7897C1.37087 14.8443 1.445 14.875 1.5223 14.875C1.59959 14.875 1.67373 14.8443 1.72842 14.7897L7 9.5181L12.2716 14.7897C12.3263 14.8443 12.4004 14.875 12.4777 14.875C12.555 14.875 12.6291 14.8443 12.6838 14.7897L13.9147 13.5588C13.9693 13.5041 14 13.43 14 13.3527C14 13.2754 13.9693 13.2013 13.9147 13.1466L8.6431 7.875Z" fill="#767676"/>
</svg>
