<svg width="39" height="42" viewBox="0 0 39 42" fill="none" xmlns="http://www.w3.org/2000/svg">
<path d="M19.2598 0.404775L0.639123 0.253629C0.571018 0.253154 0.503488 0.266239 0.440429 0.292129C0.377369 0.318019 0.320025 0.356204 0.271698 0.404484C0.223372 0.452763 0.185018 0.510184 0.158845 0.573437C0.132673 0.636691 0.1192 0.704528 0.119202 0.773045V33.1747C0.119256 33.2756 0.145595 33.3748 0.195597 33.4624C0.245599 33.5499 0.317521 33.6228 0.404206 33.6737L14.3682 41.8405C14.438 41.8809 14.5172 41.9027 14.5978 41.9027C14.6784 41.9027 14.7577 41.8813 14.8275 41.8409C14.8974 41.8004 14.9554 41.7421 14.9958 41.6718C15.0361 41.6018 15.0574 41.5221 15.0574 41.4408V11.1421C15.0575 11.0386 15.0298 10.937 14.9774 10.8479C14.9249 10.7589 14.8496 10.6856 14.7593 10.6359L7.33613 6.54898C7.27471 6.51462 7.22732 6.45949 7.20237 6.3934C7.17741 6.32728 7.17648 6.25443 7.19972 6.18772C7.22297 6.12101 7.26892 6.06468 7.32945 6.02872C7.38998 5.99276 7.46116 5.97946 7.53051 5.99117L20.9221 8.30275C21.045 8.32351 21.1565 8.38746 21.2369 8.48325C21.3173 8.57904 21.3612 8.7004 21.3609 8.82578V36.1028C21.361 36.1784 21.3771 36.2531 21.408 36.3219C21.439 36.3908 21.4842 36.4522 21.5406 36.5021C21.597 36.552 21.6633 36.5893 21.7351 36.6115C21.807 36.6336 21.8827 36.6402 21.9572 36.6306C31.8727 35.5138 38.6317 28.4891 38.7581 18.745C38.8952 7.83011 30.8781 0.557122 19.2598 0.404775Z" fill="#00248B"/>
</svg>
