<svg width="25" height="23" viewBox="0 0 25 23" fill="none" xmlns="http://www.w3.org/2000/svg">
<path d="M16.6719 16.4893V5.85449C16.6719 5.81152 16.6772 5.77393 16.688 5.7417C16.6987 5.70947 16.7148 5.67188 16.7363 5.62891C16.7578 5.60742 16.7793 5.58057 16.8008 5.54834C16.8223 5.51611 16.8545 5.5 16.8975 5.5C16.9189 5.47852 16.9512 5.4624 16.9941 5.45166C17.0371 5.44092 17.0693 5.43555 17.0908 5.43555C17.1338 5.43555 17.1714 5.44092 17.2036 5.45166C17.2358 5.4624 17.2734 5.47852 17.3164 5.5C17.7676 5.82227 18.1812 6.19287 18.5571 6.61182C18.9331 7.03076 19.25 7.4873 19.5078 7.98145C19.7656 8.47559 19.9644 8.99121 20.104 9.52832C20.2437 10.0654 20.3135 10.6133 20.3135 11.1719C20.3135 11.7305 20.2437 12.2783 20.104 12.8154C19.9644 13.3525 19.7656 13.8682 19.5078 14.3623C19.25 14.8564 18.9331 15.313 18.5571 15.7319C18.1812 16.1509 17.7676 16.5215 17.3164 16.8438C17.2734 16.8652 17.2358 16.8813 17.2036 16.8921C17.1714 16.9028 17.1338 16.9082 17.0908 16.9082C17.0693 16.9082 17.0371 16.9028 16.9941 16.8921C16.9512 16.8813 16.9189 16.8652 16.8975 16.8438C16.8545 16.8223 16.8223 16.8008 16.8008 16.7793C16.7793 16.7578 16.7578 16.7363 16.7363 16.7148C16.7148 16.6719 16.6987 16.6343 16.688 16.6021C16.6772 16.5698 16.6719 16.5322 16.6719 16.4893ZM17.2197 0.34375C17.1982 0.34375 17.166 0.338379 17.123 0.327637C17.0801 0.316895 17.0479 0.322266 17.0264 0.34375C16.9834 0.34375 16.9512 0.349121 16.9297 0.359863C16.9082 0.370605 16.876 0.386719 16.833 0.408203C16.8115 0.429688 16.79 0.451172 16.7686 0.472656C16.7471 0.494141 16.7256 0.526367 16.7041 0.569336C16.7041 0.59082 16.6987 0.617676 16.688 0.649902C16.6772 0.682129 16.6719 0.708984 16.6719 0.730469V3.05078C16.6719 3.07227 16.6772 3.10449 16.688 3.14746C16.6987 3.19043 16.7148 3.22266 16.7363 3.24414C16.7578 3.28711 16.7847 3.31934 16.8169 3.34082C16.8491 3.3623 16.8867 3.38379 16.9297 3.40527C17.6602 3.74902 18.3369 4.18408 18.96 4.71045C19.583 5.23682 20.1201 5.84375 20.5713 6.53125C21.0225 7.24023 21.3662 7.98682 21.6025 8.771C21.8389 9.55518 21.957 10.3555 21.957 11.1719C21.957 11.9883 21.8389 12.7886 21.6025 13.5728C21.3662 14.3569 21.0225 15.0928 20.5713 15.7803C20.1201 16.4678 19.583 17.0801 18.96 17.6172C18.3369 18.1543 17.6602 18.5947 16.9297 18.9385C16.8867 18.9385 16.8491 18.9546 16.8169 18.9868C16.7847 19.019 16.7578 19.0459 16.7363 19.0674C16.7148 19.1104 16.6987 19.1533 16.688 19.1963C16.6772 19.2393 16.6719 19.2715 16.6719 19.293V21.5811C16.6719 21.624 16.6772 21.6616 16.688 21.6938C16.6987 21.7261 16.7041 21.7529 16.7041 21.7744C16.7256 21.8174 16.7471 21.8496 16.7686 21.8711C16.79 21.8926 16.8115 21.9141 16.833 21.9355C16.876 21.957 16.9082 21.9731 16.9297 21.9839C16.9512 21.9946 16.9834 22 17.0264 22C17.0479 22 17.0801 22 17.123 22C17.166 22 17.1982 22 17.2197 22C18.3369 21.6133 19.3735 21.0601 20.3296 20.3403C21.2856 19.6206 22.1074 18.7773 22.7949 17.8105C23.4824 16.8438 24.0088 15.791 24.374 14.6523C24.7393 13.5137 24.9219 12.3535 24.9219 11.1719C24.9219 9.99023 24.7393 8.83008 24.374 7.69141C24.0088 6.55273 23.4824 5.5 22.7949 4.5332C22.1074 3.56641 21.2856 2.72314 20.3296 2.00342C19.3735 1.28369 18.3369 0.730469 17.2197 0.34375ZM14.416 0.214844L5.13477 5.66113H0.719727C0.655273 5.66113 0.585449 5.67725 0.510254 5.70947C0.435059 5.7417 0.375977 5.7793 0.333008 5.82227C0.290039 5.88672 0.252441 5.95117 0.220215 6.01562C0.187988 6.08008 0.171875 6.14453 0.171875 6.20898V16.1348C0.171875 16.1992 0.187988 16.2637 0.220215 16.3281C0.252441 16.3926 0.290039 16.457 0.333008 16.5215C0.375977 16.5645 0.435059 16.6021 0.510254 16.6343C0.585449 16.6665 0.655273 16.6826 0.719727 16.6826H5.13477L14.3838 22.1289C14.4268 22.1289 14.4644 22.1343 14.4966 22.145C14.5288 22.1558 14.5664 22.1611 14.6094 22.1611C14.6523 22.1611 14.6899 22.1558 14.7222 22.145C14.7544 22.1343 14.7812 22.1289 14.8027 22.1289C14.8457 22.1074 14.8779 22.0806 14.8994 22.0483C14.9209 22.0161 14.9424 21.9893 14.9639 21.9678C14.9854 21.9248 15.0015 21.8872 15.0122 21.855C15.0229 21.8228 15.0283 21.7852 15.0283 21.7422V0.569336C15.0283 0.547852 15.0229 0.515625 15.0122 0.472656C15.0015 0.429688 14.9854 0.397461 14.9639 0.375977C14.9424 0.354492 14.9209 0.327637 14.8994 0.29541C14.8779 0.263184 14.8457 0.236328 14.8027 0.214844C14.7812 0.214844 14.7544 0.209473 14.7222 0.19873C14.6899 0.187988 14.6523 0.182617 14.6094 0.182617C14.5664 0.182617 14.5288 0.187988 14.4966 0.19873C14.4644 0.209473 14.4268 0.214844 14.3838 0.214844H14.416Z" fill="#1A1A1A"/>
</svg>
