<svg width="21" height="20" viewBox="0 0 21 20" fill="none" xmlns="http://www.w3.org/2000/svg">
<path d="M20.2773 18.0824L14.676 12.4812C15.6915 10.9217 16.0917 9.0408 15.7991 7.20297C15.5064 5.36519 14.5418 3.70155 13.0922 2.53463C11.6425 1.36772 9.8112 0.780692 7.95336 0.887352C6.09548 0.994022 4.3434 1.78679 3.03686 3.11195C1.73031 4.4371 0.962403 6.20022 0.882013 8.0594C0.801633 9.9186 1.41451 11.7414 2.6018 13.1744C3.7891 14.6074 5.46622 15.5484 7.30796 15.815C9.1497 16.0817 11.0248 15.6549 12.5698 14.6174L17.2348 19.2824C17.2812 19.3289 17.339 19.3624 17.4024 19.3795C17.4657 19.3966 17.5325 19.3967 17.596 19.3799L20.1085 18.7099C20.1722 18.693 20.2302 18.6596 20.2769 18.6131C20.3235 18.5665 20.3571 18.5086 20.3742 18.4449C20.3913 18.3813 20.3913 18.3143 20.3743 18.2507C20.3573 18.1871 20.3238 18.129 20.2773 18.0824ZM5.20476 11.5749C4.46848 10.8389 4.01018 9.8703 3.90796 8.8343C3.80574 7.79823 4.06591 6.75878 4.64415 5.89304C5.22239 5.02731 6.08293 4.38885 7.07913 4.08645C8.07533 3.78405 9.1456 3.83642 10.1075 4.23464C11.0694 4.63285 11.8635 5.35228 12.3544 6.27033C12.8454 7.18839 13.0028 8.2483 12.7999 9.2694C12.5971 10.2905 12.0464 11.2097 11.2418 11.8703C10.4371 12.531 9.4283 12.8922 8.38726 12.8924C7.79602 12.8942 7.21029 12.7787 6.66401 12.5525C6.11773 12.3264 5.62173 11.9941 5.20476 11.5749Z" fill="#767676"/>
</svg>
